<?xml version="1.0" encoding="UTF-8"?>
<svg xmlns="http://www.w3.org/2000/svg" width="1120" height="420" viewBox="0 0 1120 420" role="img" aria-labelledby="title desc">
  <title>Civic Architecture Lab Logo on Midnight Navy</title>
  <desc>Civic Architecture Lab authoritative institutional logo lockup.</desc>
  <rect width="1120" height="420" fill="#061426"/>
  <g id="cal-authoritative-mark" transform="translate(68 48) scale(0.88)">
    <path d="M82 156A98 98 0 0 1 159 60" fill="none" stroke="#F7F3EA" stroke-width="30" stroke-linecap="butt"/>
    <path d="M201 60A98 98 0 0 1 278 156" fill="none" stroke="#F7F3EA" stroke-width="30" stroke-linecap="butt"/>
    <path d="M163 40H197L190 83H170Z" fill="#B9974A"/>
    <rect x="58" y="166" width="244" height="15" fill="#F7F3EA"/>
    <rect x="71" y="188" width="218" height="8" fill="#F7F3EA"/>
    <text x="83" y="296" fill="#F7F3EA" font-family="Baskerville, Iowan Old Style, Libre Baskerville, Georgia, Times New Roman, serif" font-size="116" font-weight="700" letter-spacing="0.5">CAL</text>
    <rect x="78" y="306" width="204" height="10" fill="#F7F3EA"/>
    <rect x="58" y="323" width="244" height="14" fill="#F7F3EA"/>
  </g>
  <rect x="407" y="78" width="2.5" height="264" fill="#B9974A"/>
  <g id="civic-architecture-lab-wordmark" transform="translate(470 128) scale(1)">
    <text x="0" y="0" fill="#F7F3EA" font-family="Baskerville, Iowan Old Style, Libre Baskerville, Georgia, Times New Roman, serif" font-size="74" font-weight="600" letter-spacing="-1.2">Civic</text>
    <text x="0" y="86" fill="#F7F3EA" font-family="Baskerville, Iowan Old Style, Libre Baskerville, Georgia, Times New Roman, serif" font-size="74" font-weight="600" letter-spacing="-1.6">Architecture</text>
    <text x="0" y="172" fill="#F7F3EA" font-family="Baskerville, Iowan Old Style, Libre Baskerville, Georgia, Times New Roman, serif" font-size="74" font-weight="600" letter-spacing="-1.2">Lab</text>
  </g>
</svg>
